<?xml version="1.0" encoding="UTF-8"?>
<svg xmlns="http://www.w3.org/2000/svg" xmlns:xlink="http://www.w3.org/1999/xlink" width="40pt" height="40pt" viewBox="0 0 40 40" version="1.1">
<g id="surface1">
<path style=" stroke:none;fill-rule:nonzero;fill:rgb(55.686275%,83.921569%,98.431373%);fill-opacity:1;" d="M 36.652344 30.65625 L 20.699219 39.6875 L 20.699219 32.652344 L 30.625 27.1875 Z M 37.746094 29.667969 L 37.746094 10.796875 L 31.910156 14.171875 L 31.910156 26.300781 L 37.742188 29.664062 Z M 3.347656 30.65625 L 19.285156 39.679688 L 19.285156 32.652344 L 9.355469 27.1875 Z M 2.253906 29.667969 L 2.253906 10.796875 L 8.089844 14.171875 L 8.089844 26.300781 Z M 2.9375 9.574219 L 19.300781 0.3125 L 19.300781 7.113281 L 8.816406 12.878906 L 8.730469 12.925781 Z M 37.054688 9.574219 L 20.699219 0.3125 L 20.699219 7.113281 L 31.183594 12.875 L 31.269531 12.921875 L 37.0625 9.574219 Z M 37.054688 9.574219 "/>
<path style=" stroke:none;fill-rule:nonzero;fill:rgb(10.980392%,47.058824%,75.294118%);fill-opacity:1;" d="M 19.300781 31.054688 L 9.492188 25.65625 L 9.492188 14.976562 L 19.300781 20.625 Z M 20.699219 31.054688 L 30.507812 25.664062 L 30.507812 14.976562 L 20.699219 20.625 Z M 10.15625 13.75 L 20 8.332031 L 29.84375 13.75 L 20 19.425781 Z M 10.15625 13.75 "/>
</g>
</svg>
